<?xml version="1.0" encoding="UTF-8"?>
<svg id="Layer_2" data-name="Layer 2" xmlns="http://www.w3.org/2000/svg" viewBox="0 0 726.26 155.29">
  <defs>
    <style>
      .cls-1 {
        fill: #062bad;
      }
      .cls-2 {
        fill: #062bad;
        fill-rule: evenodd;
      }
    </style>
  </defs>
  <g id="_1" data-name="1">
    <path class="cls-2" d="M423.73,63.47c-3.97,3.7-9.34,5.56-16.11,5.56h-7.17V26.26h7.17c6.77,0,12.14,1.85,16.11,5.54,3.97,3.71,5.96,8.98,5.96,15.84s-1.99,12.14-5.96,15.83h0ZM454.05,23c-4.06-7.22-9.86-12.86-17.39-16.91-7.54-4.07-16.32-6.09-26.32-6.09h-39.95v95.83h39.95c10,0,18.78-2.09,26.32-6.3,7.53-4.19,13.33-9.94,17.39-17.25,4.06-7.32,6.09-15.53,6.09-24.64s-2.03-17.41-6.09-24.63Z"/>
    <path class="cls-2" d="M500.48,58.74l8.67-26.67,8.65,26.67h-17.32ZM526.61,0h-34.65l-35.07,95.83h31.55l4.73-14.48h31.93l4.75,14.48h31.68L526.61,0Z"/>
    <polygon class="cls-2" points="551.4 0 551.4 23.82 576.58 23.82 576.58 95.83 606.63 95.83 606.63 23.82 632.08 23.82 632.08 0 551.4 0"/>
    <path class="cls-2" d="M665.46,58.74l8.67-26.67,8.65,26.67h-17.32ZM726.26,95.83v-.69L691.59,0h-34.65l-35.07,95.83h31.54l4.73-14.48h31.94l4.75,14.48h31.43Z"/>
    <path class="cls-2" d="M178.53,99.48c-6.18,6.19-14.73,10.01-24.18,10.01h-10.36V41.1h10.36c18.9,0,34.21,15.31,34.21,34.2,0,9.45-3.82,17.99-10.03,24.18h0ZM76.56,109.13c-8.66,8.67-20.62,14.01-33.84,14.01h-15.31V27.44h15.31c26.43,0,47.85,21.43,47.85,47.86,0,13.21-5.36,25.17-14.01,33.83h0ZM261.01,0h-41.52v43.45C207.48,17.81,181.41,0,151.27,0h-41.52v43.48C97.75,17.82,71.68,0,41.53,0H0v150.61h41.53c30.14,0,56.21-17.81,68.22-43.48v43.48h41.52c30.14,0,56.21-17.8,68.22-43.44v43.43h41.52c41.52,0,75.31-33.78,75.31-75.3S302.53,0,261.01,0Z"/>
    <g>
      <path class="cls-1" d="M388.71,150.59l-5.6-8.42-4.93,8.42h-7.59l8.81-13.97-9-13.5h7.79l5.52,8.3,4.85-8.3h7.59l-8.73,13.86,9.08,13.62h-7.79Z"/>
      <path class="cls-1" d="M415.41,145.74h-10.26l-1.64,4.85h-7.01l9.94-27.48h7.75l9.94,27.48h-7.08l-1.64-4.85ZM413.68,140.57l-3.41-10.06-3.37,10.06h6.77Z"/>
      <path class="cls-1" d="M432.27,145.42h8.77v5.17h-15.46v-27.48h6.69v22.31Z"/>
      <path class="cls-1" d="M462.26,155.29l-3.52-4.74c-1.04.21-2.06.31-3.05.31-2.58,0-4.95-.6-7.1-1.8-2.15-1.2-3.86-2.88-5.13-5.03-1.27-2.15-1.9-4.57-1.9-7.26s.63-5.1,1.9-7.24,2.97-3.81,5.13-5.01c2.15-1.2,4.52-1.8,7.1-1.8s4.95.6,7.1,1.8c2.15,1.2,3.85,2.87,5.09,5.01s1.86,4.55,1.86,7.24c0,2.35-.48,4.49-1.43,6.44s-2.28,3.56-3.97,4.83l6.03,7.24h-8.1ZM450.38,142.58c1.32,1.45,3.09,2.17,5.3,2.17s3.95-.73,5.26-2.19c1.32-1.46,1.98-3.39,1.98-5.79s-.66-4.36-1.98-5.81c-1.32-1.45-3.07-2.17-5.26-2.17s-3.99.72-5.3,2.15c-1.32,1.44-1.98,3.38-1.98,5.83s.66,4.36,1.98,5.81Z"/>
      <path class="cls-1" d="M489.07,145.74h-10.26l-1.64,4.85h-7.01l9.94-27.48h7.75l9.94,27.48h-7.08l-1.64-4.85ZM487.35,140.57l-3.41-10.06-3.37,10.06h6.77Z"/>
      <path class="cls-1" d="M513.26,150.59l-5.71-10.37h-1.61v10.37h-6.69v-27.48h11.23c2.17,0,4.01.38,5.54,1.13,1.53.76,2.67,1.8,3.42,3.11.76,1.32,1.13,2.79,1.13,4.4,0,1.83-.51,3.46-1.55,4.89-1.03,1.43-2.55,2.45-4.56,3.05l6.34,10.88h-7.55ZM505.94,135.48h4.15c1.23,0,2.15-.3,2.76-.9.61-.6.92-1.45.92-2.54s-.31-1.87-.92-2.47c-.61-.6-1.53-.9-2.76-.9h-4.15v6.81Z"/>
      <path class="cls-1" d="M529.09,149.06c-2.15-1.2-3.86-2.88-5.13-5.03-1.27-2.15-1.9-4.57-1.9-7.26s.63-5.1,1.9-7.24,2.97-3.81,5.13-5.01c2.15-1.2,4.52-1.8,7.1-1.8s4.95.6,7.1,1.8c2.15,1.2,3.85,2.87,5.09,5.01s1.86,4.55,1.86,7.24-.63,5.11-1.88,7.26c-1.25,2.15-2.95,3.83-5.09,5.03-2.14,1.2-4.5,1.8-7.08,1.8s-4.95-.6-7.1-1.8ZM541.46,142.56c1.32-1.46,1.98-3.39,1.98-5.79s-.66-4.36-1.98-5.81c-1.32-1.45-3.07-2.17-5.26-2.17s-3.99.72-5.3,2.15c-1.32,1.44-1.98,3.38-1.98,5.83s.66,4.36,1.98,5.81c1.32,1.45,3.09,2.17,5.3,2.17s3.95-.73,5.26-2.19Z"/>
      <path class="cls-1" d="M590.25,123.11v27.48h-6.69v-16.48l-6.15,16.48h-5.4l-6.19-16.52v16.52h-6.69v-27.48h7.91l7.71,19.02,7.63-19.02h7.87Z"/>
      <path class="cls-1" d="M610.6,145.74h-10.26l-1.64,4.85h-7.01l9.94-27.48h7.75l9.94,27.48h-7.08l-1.64-4.85ZM608.88,140.57l-3.41-10.06-3.37,10.06h6.77Z"/>
      <path class="cls-1" d="M636.71,150.59l-9.24-12.13v12.13h-6.69v-27.48h6.69v12.05l9.16-12.05h7.87l-10.65,13.46,11.04,14.01h-8.18Z"/>
      <path class="cls-1" d="M666.26,123.11v5.36h-7.28v22.12h-6.69v-22.12h-7.28v-5.36h21.25Z"/>
      <path class="cls-1" d="M685.17,145.74h-10.26l-1.64,4.85h-7.01l9.94-27.48h7.75l9.94,27.48h-7.08l-1.64-4.85ZM683.44,140.57l-3.41-10.06-3.37,10.06h6.77Z"/>
      <path class="cls-1" d="M715.81,138.87c.97,1.24,1.45,2.66,1.45,4.25,0,2.3-.8,4.12-2.41,5.46-1.61,1.34-3.84,2.02-6.71,2.02h-12.8v-27.48h12.37c2.79,0,4.98.64,6.56,1.92,1.58,1.28,2.37,3.01,2.37,5.21,0,1.62-.42,2.96-1.27,4.03-.85,1.07-1.98,1.81-3.39,2.23,1.59.34,2.87,1.13,3.84,2.37ZM702.03,134.23h4.38c1.1,0,1.94-.24,2.53-.72.59-.48.88-1.19.88-2.13s-.29-1.66-.88-2.15c-.59-.5-1.43-.74-2.53-.74h-4.38v5.75ZM709.57,144.42c.61-.51.92-1.25.92-2.21s-.32-1.72-.96-2.27-1.52-.82-2.64-.82h-4.85v6.07h4.93c1.12,0,1.99-.25,2.6-.76Z"/>
      <path class="cls-1" d="M726.26,123.11v27.48h-6.69v-27.48h6.69Z"/>
    </g>
  </g>
</svg>